<svg xmlns="http://www.w3.org/2000/svg" width="700" height="261" preserveAspectRatio="xMidYMid meet" version="1.0"><metadata>Created by potrace 1.12, written by Peter Selinger 2001-2015</metadata><g><title>Layer 1</title><g id="svg_1" fill="#000" transform="translate(0 261) scale(0.1 -0.1)"><path id="svg_2" fill="#fff" d="m413,2153c-10,-4 -13,-176 -13,-814l0,-809l270,0c209,0 270,3 270,13c0,6 0,123 0,260c0,157 3,254 10,267c10,19 21,20 280,20c256,0 270,-1 280,-19c6,-12 10,-120 10,-281l0,-260l268,2l267,3l0,810l0,810l-265,0l-265,0l-5,-253c-4,-210 -8,-254 -20,-262c-8,-6 -127,-10 -270,-10c-143,0 -262,4 -270,10c-12,8 -16,52 -20,262l-5,253l-255,2c-140,1 -261,-1 -267,-4z"/><path id="svg_3" fill="#fff" d="m2641,2146c-8,-9 -11,-89 -9,-272l3,-259l848,-3l847,-2l-2,272l-3,273l-836,3c-701,2 -838,0 -848,-12z"/><path id="svg_4" fill="#fff" d="m4969,2153l-57,-4l-6,-312c-4,-172 -6,-535 -4,-807l3,-495l270,0l270,0l5,535l5,535l280,0l280,0l5,-535l5,-535l264,-3c205,-2 266,1 273,10c4,7 8,369 8,804c0,601 -3,793 -12,802c-9,9 -192,12 -773,10c-418,-1 -785,-3 -816,-5z"/><path id="svg_5" fill="#fff" d="m2639,1064c-5,-7 -8,-121 -7,-270l3,-259l848,-3l847,-2l0,270c0,148 -3,270 -7,270c-5,0 -383,1 -841,3c-607,1 -836,-1 -843,-9z"/></g></g></svg>