<svg width="32" height="32" xmlns="http://www.w3.org/2000/svg">
 <g>
  <title>Layer 1</title>
  <path stroke="null" id="soundcloud" d="m0.53973,17.91699l-0.22938,1.74245l0.22938,1.71317a0.12995,0.12995 0 0 0 0.12613,0.12294a0.13164,0.13164 0 0 0 0.12507,-0.12238l0.27196,-1.7137l-0.27196,-1.74298a0.12565,0.12565 0 0 0 -0.2512,0.00053m1.15542,-1.07511l-0.30868,2.81751l0.30868,2.7563a0.13045,0.13045 0 0 0 0.26077,0.00053l0.35073,-2.75683l-0.35019,-2.81751a0.13075,0.13075 0 0 0 -0.26131,0m3.64827,-0.36776l-0.26077,3.18685l0.26077,3.35078a0.21078,0.21078 0 0 0 0.42153,0.00053l0.29644,-3.35132l-0.29646,-3.18841a0.2108,0.2108 0 0 0 -0.42153,0.00159m-2.44229,-0.15806l-0.29324,3.34386l0.29326,3.22143a0.15731,0.15731 0 0 0 0.31454,0.00053l0.33262,-3.22198l-0.3321,-3.34386a0.16359,0.16359 0 0 0 -0.15754,-0.15381a0.16171,0.16171 0 0 0 -0.15754,0.15381m1.21609,-0.09048l-0.27675,3.43539l0.27675,3.32308a0.18419,0.18419 0 0 0 0.36829,0l0.314,-3.32308l-0.314,-3.43646a0.18418,0.18418 0 0 0 -0.36829,0.00105m2.46252,-1.74829l-0.24535,5.18528l0.24535,3.35028a0.23766,0.23766 0 0 0 0.47526,-0.00053l0,0.00105l0.27781,-3.35077l-0.27781,-5.18528a0.23765,0.23765 0 0 0 -0.47526,0m1.24643,-1.18523l-0.22938,6.37052l0.22938,3.33002a0.26452,0.26452 0 0 0 0.529,-0.00105l0.25919,-3.32895l-0.25919,-6.37052a0.26452,0.26452 0 0 0 -0.529,0m5.08629,-0.32571l-0.16605,6.69836l0.16605,3.22357a0.37149,0.37149 0 0 0 0.74296,-0.00209l0,0.00266l0.18628,-3.22357l-0.18628,-6.69943a0.37148,0.37148 0 0 0 -0.74296,0.00053m-3.82974,-0.20491l-0.21394,6.90219l0.21394,3.29543a0.29114,0.29114 0 0 0 0.58223,-0.00105l0.24109,-3.29436l-0.24109,-6.90272a0.29113,0.29113 0 0 0 -0.58223,0.00053m2.54288,-0.0495l-0.18149,6.95275l0.182,3.2438a0.34461,0.34461 0 0 0 0.68921,-0.0016l0,0.00209l0.20436,-3.24433l-0.20436,-6.95275a0.34487,0.34487 0 0 0 -0.68974,0m-1.27677,-0.18254l-0.19745,7.13423l0.19798,3.27573a0.31775,0.31775 0 0 0 0.63545,-0.00105l0,-0.00053l0.22246,-3.2736l-0.22246,-7.13476a0.31798,0.31798 0 0 0 -0.63596,0m3.86063,-0.83556l-0.14958,7.96926c0,0.00479 0.14958,3.20442 0.14958,3.20442a0.39836,0.39836 0 0 0 0.7967,-0.0016l0,0l0.16765,-3.19966l-0.16765,-7.97298a0.39836,0.39836 0 0 0 -0.7967,0.00053m1.29113,-0.72167l-0.17456,8.69465l0.17456,3.15545a0.42498,0.42498 0 0 0 0.84993,-0.00314l0,0.00314l0.18947,-3.15545l-0.18947,-8.69572a0.42497,0.42497 0 0 0 -0.84993,0.00105m1.58545,-0.86697c-0.29112,0.1123 -0.36882,0.22833 -0.37148,0.45344l0,12.25035a0.46739,0.46739 0 0 0 0.41672,0.45605c0.0101,0.00053 10.63031,0.00586 10.69894,0.00586a3.85983,3.85983 0 1 0 -1.49283,-7.42056a6.81076,6.81076 0 0 0 -6.78246,-6.20707a6.88636,6.88636 0 0 0 -2.4689,0.46195" fill="#ffffff"/>
 </g>

</svg>