<svg xmlns="http://www.w3.org/2000/svg" width="430.117" height="430.117"><g><title>Layer 1</title><g id="svg_1" stroke="null"><path id="LinkedIn" fill="#fff" stroke="null" d="m406.11702,238.17966l0,142.38022l-82.54305,0l0,-132.84445c0,-33.37161 -11.93896,-56.14643 -41.81681,-56.14643c-22.80795,0 -36.38097,15.34856 -42.35224,30.19571c-2.17756,5.3078 -2.73806,12.69556 -2.73806,20.1254l0,138.66978l-82.5708,0c0,0 1.11206,-224.9949 0,-248.30605l82.56275,0l0,35.19639c-0.16744,0.26324 -0.38501,0.54708 -0.5426,0.80226l0.5426,0l0,-0.80226c10.96927,-16.89488 30.55923,-41.02977 74.40765,-41.02977c54.32523,-0.0009 95.05057,35.48918 95.05057,111.75921l-0.00001,-0.00001zm-338.39354,-225.62166c-28.24736,0 -46.72348,18.52804 -46.72348,42.89305c0,23.83405 17.94157,42.92439 45.62753,42.92439l0.55155,0c28.79444,0 46.70199,-19.08676 46.70199,-42.92439c-0.5426,-24.36501 -17.90755,-42.89305 -46.1576,-42.89305l0.00001,0zm-41.81949,368.00188l82.53947,0l0,-248.30605l-82.53947,0l0,248.30605z"/></g></g></svg>