<svg xmlns="http://www.w3.org/2000/svg" width="512" height="512"><g><title>Layer 1</title><g id="svg_1" stroke="null"><path id="svg_2" fill="#fff" stroke="null" d="m488.00487,257.60887c0,2.34444 -0.09378,4.68889 0,7.03333c1.12533,40.512 -10.78444,77.74178 -31.41556,111.87689c-37.98,62.83111 -93.59022,101.93644 -166.36178,112.06444c-92.84,12.94133 -168.42489,-19.69333 -225.16044,-94.43422c-24.56978,-32.25956 -38.63644,-69.30178 -42.76267,-109.43867c-7.78356,-77.27289 15.94222,-143.57378 72.02133,-197.496c39.01156,-37.51111 86.088,-58.98622 139.91644,-62.92489c86.088,-6.28311 156.04622,25.41378 208.84311,93.77778c24.38222,31.60311 38.824,67.80133 43.79422,107.46933c1.31289,10.59689 0.18756,21.38133 0.18756,32.16578c0.28133,-0.09378 0.65644,-0.09378 0.93778,-0.09378zm-280.58311,-110.47022c-8.90889,0.65644 -23.06933,1.31289 -37.22978,2.81333c-21.00622,2.06311 -41.73111,5.72044 -61.89333,12.09733c-11.72222,3.75111 -17.81778,15.75467 -14.25422,27.28933c3.56356,11.44089 15.47333,17.91156 27.19556,14.44178c28.22711,-8.34622 57.11067,-11.816 86.36933,-12.75378c28.32089,-0.93778 56.45422,0.844 84.4,5.53289c35.26044,5.908 69.39555,15.66089 100.62355,33.76c11.44089,6.65822 24.56978,3.56356 30.94667,-7.31467c6.37689,-10.78444 2.71956,-24.10089 -9.09644,-30.47778c-10.972,-5.908 -22.13156,-11.72222 -33.57244,-16.41111c-53.82844,-22.03778 -110.37644,-29.25867 -173.48889,-28.97733zm1.59422,80.36755c-8.53378,0.65644 -23.91333,1.12533 -39.01156,3.376c-15.84844,2.34444 -31.50933,6.00178 -47.17022,9.94044c-11.72222,2.90711 -17.16133,15.09822 -12.28489,25.41378c4.22,8.72133 12.84756,12.28489 23.25689,9.284c37.98,-11.06578 76.804,-13.504 115.90933,-9.284c41.26222,4.40756 80.46133,15.56711 116.37822,37.136c8.90889,5.34533 19.78711,2.34444 24.94489,-6.18933c5.25156,-8.72133 2.43822,-19.78711 -6.65822,-25.22622c-6.28311,-3.75111 -12.66,-7.40844 -19.22444,-10.59689c-46.98267,-23.35067 -97.15378,-33.10356 -156.14,-33.85378zm155.38978,125.84978c0.09378,-5.908 -2.62578,-10.40933 -7.68978,-12.94133c-14.72311,-7.22089 -29.16489,-15.09822 -44.45067,-20.81867c-32.25956,-12.19111 -65.92578,-15.94222 -100.34222,-15.28578c-27.008,0.56267 -53.54711,4.31378 -79.80489,10.03422c-9.47156,2.06311 -14.91067,9.284 -13.12889,17.25511c2.06311,9.19022 9.19022,13.41022 19.22444,11.15956c33.10356,-7.22089 66.48844,-11.15956 100.436,-8.81511c24.00711,1.688 47.45156,6.00178 69.67689,15.192c11.53467,4.78267 22.50667,10.69067 33.57244,16.41111c10.87822,5.72044 22.50667,-0.46889 22.50667,-12.19111z"/></g></g></svg>