<svg width="24" height="24" xmlns="http://www.w3.org/2000/svg">

 <g>
  <title>Layer 1</title>
  <path id="svg_1" fill="none" d="m0,0l24,0l0,24l-24,0l0,-24z"/>
  <path fill="#ffffff" stroke="null" id="svg_2" d="m23.67442,4.77209c0,-1.27395 -1.04233,-2.31628 -2.31628,-2.31628l-18.53023,0c-1.27395,0 -2.31628,1.04233 -2.31628,2.31628l0,13.89767c0,1.27395 1.04233,2.31628 2.31628,2.31628l18.53023,0c1.27395,0 2.31628,-1.04233 2.31628,-2.31628l0,-13.89767zm-2.31628,0l-9.26512,5.7907l-9.26512,-5.7907l18.53023,0zm0,13.89767l-18.53023,0l0,-11.5814l9.26512,5.7907l9.26512,-5.7907l0,11.5814z"/>
 </g>
</svg>